# xmcd CD database file
#
# Track frame offsets:
#	150
#	10513
#	22384
#	31849
#	42072
#	50582
#	59578
#	67343
#	74381
#	82641
#	95498
#	103480
#	109984
#	125579
#	136333
#	143420
#	154840
#	166981
#	172685
#	202229
#	221795
#	242149
#	250294
#	262014
#	270318
#	280720
#	294005
#	304001
#	309730
#	321313
#	328068
#	334991
#
# Disc length: 4574 seconds
#
# Revision: 0
# Processed by: cddbd v1.5.2PL0 Copyright (c) Steve Scherf et al.
# Submitted via: CDex 1.70beta2
#
DISCID=e311dc20
DTITLE=Rodrigo Arantes - Aooo Trem
DYEAR=2009
DGENRE=Country
TTITLE0=De Tanto Querer
TTITLE1=Pirraca
TTITLE2=Minha Namorada
TTITLE3=Coisas Esotéricas
TTITLE4=Querendo te Amar
TTITLE5=Ciumenta
TTITLE6=Como um Anjo
TTITLE7=Nova York
TTITLE8=Menina Veneno
TTITLE9=Amizade que virou paixao (Resposta de Amigo apaixonado)
TTITLE10=Eu Acabo Voltando
TTITLE11=Depois que você matar meu coração
TTITLE12=Voce Vai Ver
TTITLE13=To Sofrendo Demais
TTITLE14=So de Voce
TTITLE15=Falando Serio
TTITLE16=Caixa Postal
TTITLE17=Tarde Demais
TTITLE18=Abre a janela/ Parece castigo/ Chorando se foi
TTITLE19=Ate o Sol Raiar
TTITLE20=A Moda do Chifre and Pagode
TTITLE21=60 Dias Apaixonado
TTITLE22=Saudade da Minha Terra
TTITLE23=Pode Chorar
TTITLE24=Pra La de Bagda
TTITLE25=Ah E
TTITLE26=Morro de Saudade
TTITLE27=Fora do Eixo
TTITLE28=Tem Que Ser Voce
TTITLE29=Fotos
TTITLE30=Tira Essa Saudade de Mim
TTITLE31=Do Brasil a Argentina
EXTD=YEAR: 2009
EXTT0=
EXTT1=
EXTT2=
EXTT3=
EXTT4=
EXTT5=
EXTT6=
EXTT7=
EXTT8=
EXTT9=
EXTT10=
EXTT11=
EXTT12=
EXTT13=
EXTT14=
EXTT15=
EXTT16=
EXTT17=
EXTT18=
EXTT19=
EXTT20=
EXTT21=
EXTT22=
EXTT23=
EXTT24=
EXTT25=
EXTT26=
EXTT27=
EXTT28=
EXTT29=
EXTT30=
EXTT31=
PLAYORDER=
